<?xml version="1.0" encoding="utf-8"?>
<!-- Generator: Adobe Illustrator 25.4.1, SVG Export Plug-In . SVG Version: 6.00 Build 0)  -->
<svg version="1.1" id="favicon" xmlns="http://www.w3.org/2000/svg" xmlns:xlink="http://www.w3.org/1999/xlink" x="0px" y="0px"
	 viewBox="0 0 32 32" style="enable-background:new 0 0 32 32;" xml:space="preserve">
<style type="text/css">
	.st0{display:none;fill:#292E33;}
	.st1{display:none;fill:#FFFFFF;}
	.st2{display:none;enable-background:new    ;}
	.st3{fill:#FFFFFF;}
	.st4{display:inline;fill:#FFFFFF;}
	.st5{enable-background:new    ;}
	.st6{display:none;}
</style>
<path id="BG" class="st0" d="M28,32H4c-2.21,0-4-1.79-4-4V4c0-2.21,1.79-4,4-4h24c2.21,0,4,1.79,4,4v24C32,30.21,30.21,32,28,32z"/>
<path id="U_x5F_ORG_00000021838927274714926370000012249478026438812094_" class="st1" d="M22,11v6c0,3.31-2.69,6-6,6
	c-3.32,0-6-2.69-6-6v-6h3v6c0,1.66,1.34,3,3,3c1.65,0,3-1.34,3-3v-6H22z"/>
<g id="U_x5F_NC" class="st2">
	<path id="CURVE_x5F_ORG" class="st3" d="M21.83,22.63l-4.81,2.8c-0.88,0.51-2.1,0.44-3.44-0.33c-2.69-1.55-4.85-5.29-4.84-8.36
		l4.81-2.8c-0.01,3.07,2.15,6.81,4.84,8.36C19.72,23.07,20.94,23.14,21.83,22.63z"/>
	<path id="CURVE_x5F_CUT" class="st4" d="M13.57,25.1c0.17,0.1,0.33,0.18,0.49,0.26c0.06,0.03,0.12,0.05,0.18,0.07
		c0.1,0.04,0.2,0.09,0.3,0.12c0.06,0.02,0.12,0.03,0.19,0.05c0.09,0.03,0.19,0.06,0.28,0.08c0.06,0.01,0.12,0.02,0.19,0.03
		c0.09,0.01,0.18,0.03,0.26,0.04c0.06,0.01,0.12,0,0.18,0c0.08,0,0.16,0.01,0.24,0c0.06,0,0.12-0.02,0.19-0.02
		c0.07-0.01,0.15-0.01,0.21-0.03c0.06-0.01,0.12-0.03,0.18-0.05c0.07-0.02,0.14-0.03,0.2-0.06c0.06-0.02,0.11-0.05,0.16-0.07
		c0.06-0.03,0.13-0.05,0.18-0.09c0.87-0.5,1.42-1.57,1.42-3.11v-0.01c-0.01-0.01-0.03-0.01-0.04-0.02
		c-2.69-1.55-4.85-5.29-4.84-8.36l-4.81,2.8C8.72,19.8,10.88,23.54,13.57,25.1z"/>
	<path id="BOTTOM" class="st4" d="M25.25,28.55l-4.81,2.8c1.74-1.01,2.82-3.17,2.83-6.22l4.81-2.8
		C28.07,25.38,26.99,27.54,25.25,28.55z"/>
	<polygon id="SIDE_x5F_R" class="st4" points="23.3,13.98 28.11,11.19 28.08,22.33 23.26,25.12 	"/>
	<polygon id="SIDE_x5F_L" class="st4" points="8.76,5.59 13.58,2.79 13.54,13.93 8.73,16.73 	"/>
	<polygon id="TOP_x5F_R" class="st4" points="18.46,11.19 23.27,8.39 28.11,11.19 23.3,13.98 	"/>
	<polygon id="TOP_x5F_L" class="st4" points="3.92,2.8 8.74,0 13.58,2.79 8.76,5.59 	"/>
	<path id="FRONT" d="M23.3,13.98l-0.03,11.14c-0.02,6.15-4.36,8.64-9.71,5.55c-5.36-3.1-9.68-10.59-9.66-16.74L3.92,2.8l4.84,2.79
		L8.73,16.73c-0.01,3.07,2.15,6.81,4.84,8.36c2.66,1.54,4.85,0.31,4.86-2.77l0.03-11.14L23.3,13.98z"/>
</g>
<g id="U" class="st5">
	<path id="CURVE_x5F_ORG_00000000935574974708162470000014616987376685234618_" class="st1" d="M21.83,22.63l-4.81,2.8
		c-0.88,0.51-2.1,0.44-3.44-0.33c-2.69-1.55-4.85-5.29-4.84-8.36l4.81-2.8c-0.01,3.07,2.15,6.81,4.84,8.36
		C19.72,23.07,20.94,23.14,21.83,22.63z"/>
	<path id="R" class="st3" d="M28.11,11.19l-0.03,11.14c-0.01,3.05-1.09,5.21-2.83,6.22l-4.82,2.8c1.75-1.02,2.83-3.17,2.83-6.23
		l0.04-11.14l-4.84-2.79l4.81-2.8L28.11,11.19z"/>
	<path id="L" class="st3" d="M18.42,22.32L18.42,22.32c0,1.54-0.54,2.61-1.42,3.11c-0.06,0.04-0.12,0.06-0.18,0.09
		c-0.06,0.03-0.11,0.06-0.16,0.08c-0.07,0.02-0.14,0.04-0.2,0.05c-0.06,0.02-0.12,0.04-0.18,0.05c-0.07,0.02-0.14,0.02-0.21,0.03
		s-0.13,0.02-0.19,0.02c-0.08,0.01-0.16,0-0.24,0c-0.06,0-0.12,0-0.18-0.01c-0.09,0-0.18-0.02-0.26-0.04
		c-0.07-0.01-0.13-0.01-0.19-0.02c-0.09-0.02-0.18-0.06-0.28-0.08c-0.06-0.02-0.12-0.03-0.19-0.05c-0.09-0.04-0.2-0.08-0.3-0.13
		c-0.06-0.02-0.12-0.04-0.18-0.07c-0.16-0.07-0.32-0.16-0.49-0.25c-2.69-1.56-4.85-5.3-4.84-8.37L8.76,5.59L3.92,2.8L8.74,0
		l4.84,2.79l-0.04,11.14c-0.01,3.08,2.15,6.82,4.84,8.37C18.4,22.31,18.41,22.31,18.42,22.32z"/>
	<path id="FRONT_00000021078028954536375960000010221970937682230455_" class="st6" d="M23.3,13.98l-0.03,11.14
		c-0.02,6.15-4.36,8.64-9.71,5.55c-5.36-3.1-9.68-10.59-9.66-16.74L3.92,2.8l4.84,2.79L8.73,16.73c-0.01,3.07,2.15,6.81,4.84,8.36
		c2.66,1.54,4.85,0.31,4.86-2.77l0.03-11.14L23.3,13.98z"/>
</g>
</svg>
